<svg xmlns="http://www.w3.org/2000/svg" xmlns:xlink="http://www.w3.org/1999/xlink" version="1.1" id="Layer_1" x="0px" y="0px" style="enable-background:new 0 0 595.3 841.9;" xml:space="preserve" viewBox="207.4 409.8 126.1 22.2">
<style type="text/css">
	.st0{fill-rule:evenodd;clip-rule:evenodd;fill:#4A90E2;}
	.st1{fill:#4A90E2;}
</style>
<g>
	<g>
		<g>
			<path class="st0" d="M282.6,411h15.6v1.9c0,1.1-0.9,1.9-1.9,1.9h-13.7V411z M282.6,419h10.7v1.9c0,1.1-0.9,1.9-1.9,1.9h-8.8     L282.6,419L282.6,419z M282.6,426.8h4.3v1.9c0,1.1-0.9,1.9-1.9,1.9h-2.4"/>
			<path class="st1" d="M207.5,411h8c1.2,0,2.2,0.2,3.1,0.5c0.9,0.3,1.7,0.8,2.3,1.4s1.1,1.3,1.5,2.1c0.3,0.8,0.5,1.7,0.5,2.8v0.1     c0,1.1-0.2,2.1-0.6,3c-0.4,0.9-1,1.6-1.7,2.2s-1.5,1-2.5,1.3s-2,0.4-3.1,0.4h-3.3v5.9h-4.3L207.5,411L207.5,411z M215.2,421     c1.1,0,1.9-0.3,2.5-0.8c0.6-0.6,0.9-1.3,0.9-2.1V418c0-1-0.3-1.7-0.9-2.2c-0.6-0.5-1.5-0.8-2.5-0.8h-3.3v6 M230.3,411h8.9     c2.5,0,4.4,0.7,5.7,2c1.1,1.1,1.7,2.6,1.7,4.5v0.1c0,1.6-0.4,2.9-1.2,3.9s-1.8,1.7-3,2.2l4.8,7h-5l-4.2-6.4h-3.4v6.2h-4.3     C230.3,430.5,230.3,411,230.3,411z M239,420.5c1.1,0,1.9-0.2,2.4-0.8s0.8-1.2,0.8-2v-0.1c0-0.9-0.3-1.6-0.9-2.1s-1.4-0.7-2.5-0.7     h-4.3v5.6 M305.3,430.5h4.3V411h-4.3V430.5z M323.2,415h-5.9v-4h16.2v4h-5.9v15.6h-4.3"/>
			<path class="st1" d="M275,422.4h-3.3c-0.4,0-0.7-0.3-0.7-0.7v-1.3c0-0.4,0.3-0.7,0.7-0.7h3.3c0.4,0,0.7,0.3,0.7,0.7v1.2     C275.7,422,275.4,422.4,275,422.4z M265.9,410.5v3.3c0,0.4-0.3,0.7-0.7,0.7h-1.3c-0.4,0-0.7-0.3-0.7-0.7v-3.3     c0-0.4,0.3-0.7,0.7-0.7h1.2C265.6,409.9,265.9,410.1,265.9,410.5z"/>
			<path class="st1" d="M264.5,413.6c-4,0-7.3,3.2-7.3,7.3c0,4,3.3,7.3,7.3,7.3s7.3-3.3,7.3-7.3     C271.7,416.9,268.5,413.6,264.5,413.6z M264.5,431c-5.6,0-10.1-4.5-10.1-10.1s4.5-10.1,10.1-10.1s10.1,4.5,10.1,10.1     S270.1,431,264.5,431z"/>
			<path class="st1" d="M257.5,422.4h-3.3c-0.4,0-0.7-0.3-0.7-0.7v-1.3c0-0.4,0.3-0.7,0.7-0.7h3.3c0.4,0,0.7,0.3,0.7,0.7v1.2     C258.2,422,257.9,422.4,257.5,422.4z"/>
			<path class="st1" d="M268.9,421c0,2.4-2,4.4-4.4,4.4s-4.4-2-4.4-4.4s2-4.4,4.4-4.4C267,416.5,268.9,418.5,268.9,421z"/>
			<path class="st1" d="M265.9,428v3.3c0,0.4-0.3,0.7-0.7,0.7h-1.3c-0.4,0-0.7-0.3-0.7-0.7V428c0-0.4,0.3-0.7,0.7-0.7h1.2     C265.6,427.4,265.9,427.6,265.9,428z"/>
		</g>
	</g>
</g>
</svg>